<svg width="260" height="51" viewBox="0 0 260 51" fill="none" xmlns="http://www.w3.org/2000/svg">
<path d="M49.4333 18.4208L32.0159 4.91028L26.7026 10.7633L16.9427 7.39952L10.2442 21.8548H5.91895V45.5215H49.2668V21.8548H46.3155L49.4333 18.4208ZM32.5008 10.0417L43.8824 18.8685L41.1707 21.8548H21.7777L32.5008 10.0417ZM19.086 12.0259L24.0141 13.7242L16.634 21.8548H14.5323L19.086 12.0259ZM45.3263 41.8783H9.86005V25.4975H45.3268V41.8783H45.3263Z" fill="#5BA6FF"/>
<path d="M33.4941 31.9229H41.3758V35.5656H33.4941V31.9229Z" fill="#5BA6FF"/>
<path d="M80.4058 37V16.6364H92.616V18.8239H82.8717V25.7045H91.7013V27.892H82.8717V37H80.4058ZM101.605 37.3182C100.226 37.3182 99.0161 36.9901 97.9754 36.3338C96.9413 35.6776 96.1326 34.7595 95.5493 33.5795C94.9726 32.3996 94.6842 31.0208 94.6842 29.4432C94.6842 27.8523 94.9726 26.4635 95.5493 25.277C96.1326 24.0904 96.9413 23.169 97.9754 22.5128C99.0161 21.8565 100.226 21.5284 101.605 21.5284C102.983 21.5284 104.19 21.8565 105.224 22.5128C106.265 23.169 107.073 24.0904 107.65 25.277C108.233 26.4635 108.525 27.8523 108.525 29.4432C108.525 31.0208 108.233 32.3996 107.65 33.5795C107.073 34.7595 106.265 35.6776 105.224 36.3338C104.19 36.9901 102.983 37.3182 101.605 37.3182ZM101.605 35.2102C102.652 35.2102 103.514 34.9418 104.19 34.4048C104.866 33.8679 105.367 33.1619 105.691 32.2869C106.016 31.4119 106.179 30.464 106.179 29.4432C106.179 28.4223 106.016 27.4711 105.691 26.5895C105.367 25.7079 104.866 24.9953 104.19 24.4517C103.514 23.9081 102.652 23.6364 101.605 23.6364C100.557 23.6364 99.6956 23.9081 99.0194 24.4517C98.3433 24.9953 97.8428 25.7079 97.518 26.5895C97.1932 27.4711 97.0308 28.4223 97.0308 29.4432C97.0308 30.464 97.1932 31.4119 97.518 32.2869C97.8428 33.1619 98.3433 33.8679 99.0194 34.4048C99.6956 34.9418 100.557 35.2102 101.605 35.2102ZM118.749 21.7273V23.7159H110.834V21.7273H118.749ZM113.141 18.0682H115.488V32.625C115.488 33.2879 115.584 33.785 115.776 34.1165C115.975 34.4413 116.227 34.66 116.532 34.7727C116.843 34.8788 117.172 34.9318 117.516 34.9318C117.775 34.9318 117.987 34.9186 118.153 34.892C118.318 34.8589 118.451 34.8324 118.55 34.8125L119.028 36.9205C118.869 36.9801 118.646 37.0398 118.361 37.0994C118.076 37.1657 117.715 37.1989 117.278 37.1989C116.615 37.1989 115.965 37.0563 115.329 36.7713C114.699 36.4863 114.175 36.0521 113.758 35.4688C113.347 34.8854 113.141 34.1496 113.141 33.2614V18.0682ZM128.32 37.3182C126.941 37.3182 125.731 36.9901 124.69 36.3338C123.656 35.6776 122.847 34.7595 122.264 33.5795C121.687 32.3996 121.399 31.0208 121.399 29.4432C121.399 27.8523 121.687 26.4635 122.264 25.277C122.847 24.0904 123.656 23.169 124.69 22.5128C125.731 21.8565 126.941 21.5284 128.32 21.5284C129.698 21.5284 130.905 21.8565 131.939 22.5128C132.98 23.169 133.788 24.0904 134.365 25.277C134.948 26.4635 135.24 27.8523 135.24 29.4432C135.24 31.0208 134.948 32.3996 134.365 33.5795C133.788 34.7595 132.98 35.6776 131.939 36.3338C130.905 36.9901 129.698 37.3182 128.32 37.3182ZM128.32 35.2102C129.367 35.2102 130.229 34.9418 130.905 34.4048C131.581 33.8679 132.081 33.1619 132.406 32.2869C132.731 31.4119 132.893 30.464 132.893 29.4432C132.893 28.4223 132.731 27.4711 132.406 26.5895C132.081 25.7079 131.581 24.9953 130.905 24.4517C130.229 23.9081 129.367 23.6364 128.32 23.6364C127.272 23.6364 126.41 23.9081 125.734 24.4517C125.058 24.9953 124.558 25.7079 124.233 26.5895C123.908 27.4711 123.746 28.4223 123.746 29.4432C123.746 30.464 123.908 31.4119 124.233 32.2869C124.558 33.1619 125.058 33.8679 125.734 34.4048C126.41 34.9418 127.272 35.2102 128.32 35.2102ZM152.464 37.3182C151.191 37.3182 150.068 36.9967 149.093 36.3537C148.119 35.7041 147.357 34.7893 146.806 33.6094C146.256 32.4228 145.981 31.0208 145.981 29.4034C145.981 27.7992 146.256 26.4072 146.806 25.2273C147.357 24.0473 148.122 23.1359 149.103 22.4929C150.084 21.8499 151.218 21.5284 152.504 21.5284C153.498 21.5284 154.284 21.6941 154.86 22.0256C155.444 22.3504 155.888 22.7216 156.193 23.1392C156.504 23.5502 156.746 23.8883 156.919 24.1534H157.117V16.6364H159.464V37H157.197V34.6534H156.919C156.746 34.9318 156.501 35.2831 156.183 35.7074C155.865 36.125 155.411 36.4995 154.821 36.831C154.231 37.1558 153.445 37.3182 152.464 37.3182ZM152.782 35.2102C153.724 35.2102 154.519 34.965 155.169 34.4744C155.818 33.9773 156.312 33.2912 156.65 32.4162C156.988 31.5346 157.157 30.517 157.157 29.3636C157.157 28.2235 156.992 27.2259 156.66 26.3707C156.329 25.509 155.838 24.8395 155.188 24.3622C154.539 23.8783 153.737 23.6364 152.782 23.6364C151.788 23.6364 150.959 23.8916 150.296 24.402C149.64 24.9058 149.146 25.5919 148.815 26.4602C148.49 27.322 148.328 28.2898 148.328 29.3636C148.328 30.4508 148.493 31.4384 148.825 32.3267C149.163 33.2083 149.66 33.911 150.316 34.4347C150.979 34.9517 151.801 35.2102 152.782 35.2102ZM170.491 37.3182C169.019 37.3182 167.75 36.9934 166.683 36.3438C165.622 35.6875 164.804 34.7727 164.227 33.5994C163.657 32.4195 163.372 31.0473 163.372 29.483C163.372 27.9186 163.657 26.5398 164.227 25.3466C164.804 24.1468 165.606 23.2121 166.633 22.5426C167.667 21.8665 168.874 21.5284 170.252 21.5284C171.048 21.5284 171.833 21.661 172.609 21.9261C173.385 22.1913 174.09 22.6222 174.727 23.2188C175.363 23.8087 175.87 24.5909 176.248 25.5653C176.626 26.5398 176.815 27.7396 176.815 29.1648V30.1591H165.042V28.1307H174.429C174.429 27.2689 174.256 26.5 173.911 25.8239C173.573 25.1477 173.09 24.6141 172.46 24.223C171.837 23.8319 171.101 23.6364 170.252 23.6364C169.318 23.6364 168.509 23.8684 167.826 24.3324C167.15 24.7898 166.63 25.3864 166.265 26.1222C165.901 26.858 165.718 27.6468 165.718 28.4886V29.8409C165.718 30.9943 165.917 31.9721 166.315 32.7741C166.719 33.5696 167.279 34.1761 167.995 34.5938C168.711 35.0047 169.543 35.2102 170.491 35.2102C171.108 35.2102 171.664 35.1241 172.161 34.9517C172.665 34.7727 173.099 34.5076 173.464 34.1562C173.829 33.7983 174.11 33.3542 174.309 32.8239L176.576 33.4602C176.338 34.2292 175.937 34.9053 175.373 35.4886C174.81 36.0653 174.114 36.5161 173.285 36.8409C172.456 37.1591 171.525 37.3182 170.491 37.3182ZM188.578 37V16.6364H195.458C197.056 16.6364 198.362 16.9247 199.376 17.5014C200.397 18.0715 201.152 18.8438 201.643 19.8182C202.134 20.7926 202.379 21.8797 202.379 23.0795C202.379 24.2794 202.134 25.3698 201.643 26.3509C201.159 27.3319 200.41 28.1141 199.396 28.6974C198.382 29.2741 197.082 29.5625 195.498 29.5625H190.566V27.375H195.419C196.512 27.375 197.391 27.1861 198.054 26.8082C198.716 26.4304 199.197 25.92 199.495 25.277C199.8 24.6274 199.953 23.8949 199.953 23.0795C199.953 22.2642 199.8 21.535 199.495 20.892C199.197 20.2491 198.713 19.7453 198.044 19.3807C197.374 19.0095 196.486 18.8239 195.379 18.8239H191.044V37H188.578ZM212.272 37.3182C210.801 37.3182 209.531 36.9934 208.464 36.3438C207.403 35.6875 206.585 34.7727 206.008 33.5994C205.438 32.4195 205.153 31.0473 205.153 29.483C205.153 27.9186 205.438 26.5398 206.008 25.3466C206.585 24.1468 207.387 23.2121 208.414 22.5426C209.448 21.8665 210.655 21.5284 212.034 21.5284C212.829 21.5284 213.615 21.661 214.39 21.9261C215.166 22.1913 215.872 22.6222 216.508 23.2188C217.144 23.8087 217.652 24.5909 218.029 25.5653C218.407 26.5398 218.596 27.7396 218.596 29.1648V30.1591H206.823V28.1307H216.21C216.21 27.2689 216.037 26.5 215.693 25.8239C215.355 25.1477 214.871 24.6141 214.241 24.223C213.618 23.8319 212.882 23.6364 212.034 23.6364C211.099 23.6364 210.29 23.8684 209.608 24.3324C208.931 24.7898 208.411 25.3864 208.046 26.1222C207.682 26.858 207.5 27.6468 207.5 28.4886V29.8409C207.5 30.9943 207.698 31.9721 208.096 32.7741C208.501 33.5696 209.061 34.1761 209.777 34.5938C210.492 35.0047 211.324 35.2102 212.272 35.2102C212.889 35.2102 213.446 35.1241 213.943 34.9517C214.447 34.7727 214.881 34.5076 215.245 34.1562C215.61 33.7983 215.892 33.3542 216.09 32.8239L218.358 33.4602C218.119 34.2292 217.718 34.9053 217.154 35.4886C216.591 36.0653 215.895 36.5161 215.066 36.8409C214.238 37.1591 213.306 37.3182 212.272 37.3182ZM222.166 37V21.7273H224.433V24.0341H224.592C224.87 23.2784 225.374 22.6652 226.103 22.1946C226.832 21.724 227.654 21.4886 228.569 21.4886C228.742 21.4886 228.957 21.4919 229.215 21.4986C229.474 21.5052 229.67 21.5152 229.802 21.5284V23.9148C229.723 23.8949 229.54 23.8651 229.255 23.8253C228.977 23.7789 228.682 23.7557 228.37 23.7557C227.628 23.7557 226.965 23.9115 226.382 24.223C225.805 24.5279 225.348 24.9522 225.01 25.4957C224.678 26.0327 224.512 26.6458 224.512 27.3352V37H222.166ZM240.342 21.7273V23.7159H232.109V21.7273H240.342ZM234.575 37V19.6193C234.575 18.7443 234.78 18.0152 235.191 17.4318C235.602 16.8485 236.136 16.411 236.792 16.1193C237.448 15.8277 238.141 15.6818 238.87 15.6818C239.447 15.6818 239.918 15.7282 240.282 15.821C240.647 15.9138 240.919 16 241.098 16.0795L240.421 18.108C240.302 18.0682 240.136 18.0185 239.924 17.9588C239.719 17.8991 239.447 17.8693 239.109 17.8693C238.333 17.8693 237.773 18.0649 237.429 18.456C237.09 18.8471 236.921 19.4205 236.921 20.1761V37H234.575ZM243.631 37V21.7273H245.977V37H243.631ZM244.824 19.1818C244.366 19.1818 243.972 19.026 243.641 18.7145C243.316 18.4029 243.153 18.0284 243.153 17.5909C243.153 17.1534 243.316 16.7789 243.641 16.4673C243.972 16.1558 244.366 16 244.824 16C245.281 16 245.672 16.1558 245.997 16.4673C246.329 16.7789 246.494 17.1534 246.494 17.5909C246.494 18.0284 246.329 18.4029 245.997 18.7145C245.672 19.026 245.281 19.1818 244.824 19.1818ZM252.622 16.6364V37H250.275V16.6364H252.622Z" fill="white"/>
</svg>
