<svg width="70" height="70" viewBox="0 0 70 70" fill="none" xmlns="http://www.w3.org/2000/svg">
<rect width="70" height="70" rx="20" fill="#D9D9D9"/>
<path d="M50.7936 46.5794C49.3147 43.9505 46.8925 40.9728 42.9492 39.2801C40.6939 40.8579 37.954 41.7869 35.0003 41.7869C32.045 41.7869 29.3052 40.858 27.0498 39.2801C23.1065 40.9728 20.6843 43.9505 19.2062 46.5794C17.2446 50.0662 18.7825 55 22.1751 55C25.5678 55 35.0004 55 35.0004 55C35.0004 55 44.4321 55 47.8249 55C51.2174 55 52.7553 50.0662 50.7936 46.5794Z" fill="black" fill-opacity="0.29"/>
<path d="M35.0004 38.4876C40.7929 38.4876 45.4872 33.7916 45.4872 27.9999V25.4876C45.4872 19.6959 40.7929 15 35.0004 15C29.207 15 24.512 19.6959 24.512 25.4877V28C24.512 33.7916 29.2071 38.4876 35.0004 38.4876Z" fill="black" fill-opacity="0.29"/>
</svg>
