<svg width="34" height="34" viewBox="0 0 34 34" fill="none" xmlns="http://www.w3.org/2000/svg">
<path d="M31.605 8.42895C31.605 5.70032 27.951 3.64305 23.105 3.64305C18.259 3.64305 14.605 5.70032 14.605 8.42895C14.605 8.45319 14.6103 8.4761 14.611 8.5H14.605V12.1427H17.0335V11.8419C18.5532 12.6989 20.6795 13.2142 23.105 13.2142C25.3425 13.2142 27.3195 12.7716 28.8063 12.0308C29.0367 12.2692 29.1765 12.5063 29.1765 12.7141C29.1765 13.6521 26.755 15.0709 23.105 15.0709H20.6772V17.4994H23.105C25.3429 17.4994 27.3204 17.0568 28.8073 16.3157C29.038 16.5538 29.1762 16.7908 29.1762 16.9997C29.1762 17.9383 26.7547 19.3571 23.1046 19.3571L22.245 19.3611C21.7168 19.3657 21.2051 19.3707 20.7064 19.3574L20.647 21.7849C20.9139 21.7915 21.1842 21.7939 21.4598 21.7939C21.7231 21.7939 21.991 21.7922 22.2633 21.7899L23.1046 21.7859C25.3439 21.7859 27.3221 21.3426 28.8093 20.6009C29.0407 20.8409 29.1758 21.0793 29.1758 21.2855C29.1758 22.2242 26.7543 23.643 23.1043 23.643H20.6765V26.0714H23.1043C25.3435 26.0714 27.3214 25.6282 28.8089 24.8864C29.0407 25.1261 29.1758 25.3645 29.1758 25.5711C29.1758 26.5097 26.7543 27.9285 23.1043 27.9285H20.6765V30.357H23.1043C27.9503 30.357 31.6043 28.2997 31.6043 25.5711C31.6043 25.5485 31.6013 25.5229 31.6007 25.5H31.6043V8.5H31.5983C31.5993 8.4761 31.605 8.45286 31.605 8.42895ZM17.0335 8.42895C17.0335 7.4903 19.455 6.07153 23.105 6.07153C26.755 6.07153 29.1765 7.4903 29.1765 8.42895C29.1765 9.36694 26.755 10.7857 23.105 10.7857C19.455 10.7857 17.0335 9.36694 17.0335 8.42895Z" fill="#4F7DEA"/>
<path d="M10.9619 12.1427C6.11592 12.1427 2.46191 14.2 2.46191 16.9286C2.46191 16.9528 2.46723 16.9757 2.46789 16.9997H2.46191V25.4997C2.46191 28.2283 6.11592 30.2856 10.9619 30.2856C15.8079 30.2856 19.4619 28.2283 19.4619 25.4997V17H19.4559C19.4566 16.9761 19.4619 16.9528 19.4619 16.9289C19.4619 14.2003 15.8079 12.1427 10.9619 12.1427ZM4.89039 21.2145C4.89039 21.0046 5.02752 20.7679 5.25828 20.5298C6.74545 21.2712 8.72336 21.7142 10.9619 21.7142C13.1995 21.7142 15.1764 21.2716 16.6632 20.5308C16.8937 20.7692 17.0334 21.0063 17.0334 21.2141C17.0334 22.1521 14.6119 23.5709 10.9619 23.5709C7.31189 23.5709 4.89039 22.1524 4.89039 21.2145ZM10.9619 14.5715C14.6119 14.5715 17.0334 15.9903 17.0334 16.9289C17.0334 17.8669 14.6119 19.2857 10.9619 19.2857C7.31189 19.2857 4.89039 17.8669 4.89039 16.9289C4.89039 15.9903 7.31189 14.5715 10.9619 14.5715ZM10.9619 27.8574C7.31189 27.8574 4.89039 26.4386 4.89039 25.5C4.89039 25.2911 5.02885 25.0541 5.25928 24.816C6.74645 25.5571 8.72369 26 10.9619 26C13.1998 26 15.1774 25.5574 16.6642 24.8163C16.895 25.0544 17.0331 25.2915 17.0331 25.5003C17.0334 26.4386 14.6119 27.8574 10.9619 27.8574Z" fill="#4F7DEA"/>
</svg>
