<svg width="190" height="51" viewBox="0 0 190 51" fill="none" xmlns="http://www.w3.org/2000/svg">
<path d="M44.8702 18.4208L29.0606 4.91025L24.2377 10.7633L15.3788 7.39949L9.29856 21.8548H5.37256V45.5215H44.7191V21.8548H42.0402L44.8702 18.4208ZM29.5007 10.0416L39.8317 18.8685L37.3703 21.8548H19.7674L29.5007 10.0416ZM17.3242 12.0258L21.7974 13.7242L15.0986 21.8548H13.1908L17.3242 12.0258ZM41.1423 41.8783H8.94987V25.4975H41.1428V41.8783H41.1423Z" fill="#5BA6FF"/>
<path d="M30.4023 31.9228H37.5565V35.5655H30.4023V31.9228Z" fill="#5BA6FF"/>
<path d="M94.3339 36.5V16.1364H96.7999V34.3125H106.266V36.5H94.3339ZM115.97 36.8182C114.592 36.8182 113.382 36.4901 112.341 35.8338C111.307 35.1776 110.498 34.2595 109.915 33.0795C109.338 31.8996 109.05 30.5208 109.05 28.9432C109.05 27.3523 109.338 25.9635 109.915 24.777C110.498 23.5904 111.307 22.669 112.341 22.0128C113.382 21.3565 114.592 21.0284 115.97 21.0284C117.349 21.0284 118.556 21.3565 119.59 22.0128C120.63 22.669 121.439 23.5904 122.016 24.777C122.599 25.9635 122.891 27.3523 122.891 28.9432C122.891 30.5208 122.599 31.8996 122.016 33.0795C121.439 34.2595 120.63 35.1776 119.59 35.8338C118.556 36.4901 117.349 36.8182 115.97 36.8182ZM115.97 34.7102C117.018 34.7102 117.879 34.4418 118.556 33.9048C119.232 33.3679 119.732 32.6619 120.057 31.7869C120.382 30.9119 120.544 29.964 120.544 28.9432C120.544 27.9223 120.382 26.9711 120.057 26.0895C119.732 25.2079 119.232 24.4953 118.556 23.9517C117.879 23.4081 117.018 23.1364 115.97 23.1364C114.923 23.1364 114.061 23.4081 113.385 23.9517C112.709 24.4953 112.208 25.2079 111.884 26.0895C111.559 26.9711 111.396 27.9223 111.396 28.9432C111.396 29.964 111.559 30.9119 111.884 31.7869C112.208 32.6619 112.709 33.3679 113.385 33.9048C114.061 34.4418 114.923 34.7102 115.97 34.7102ZM132.638 42.5455C131.504 42.5455 130.53 42.3996 129.714 42.108C128.899 41.8229 128.219 41.4451 127.676 40.9744C127.139 40.5104 126.711 40.0133 126.393 39.483L128.263 38.1705C128.475 38.4489 128.743 38.767 129.068 39.125C129.393 39.4896 129.837 39.8045 130.4 40.0696C130.97 40.3414 131.716 40.4773 132.638 40.4773C133.871 40.4773 134.888 40.179 135.69 39.5824C136.492 38.9858 136.893 38.0511 136.893 36.7784V33.6761H136.694C136.522 33.9545 136.277 34.2992 135.959 34.7102C135.647 35.1146 135.196 35.4759 134.606 35.794C134.023 36.1056 133.234 36.2614 132.24 36.2614C131.007 36.2614 129.9 35.9697 128.919 35.3864C127.944 34.803 127.172 33.9545 126.602 32.8409C126.039 31.7273 125.757 30.375 125.757 28.7841C125.757 27.2197 126.032 25.8575 126.582 24.6974C127.132 23.5308 127.898 22.6293 128.879 21.9929C129.86 21.3499 130.994 21.0284 132.28 21.0284C133.274 21.0284 134.063 21.1941 134.646 21.5256C135.236 21.8504 135.687 22.2216 135.998 22.6392C136.317 23.0502 136.562 23.3883 136.734 23.6534H136.973V21.2273H139.24V36.9375C139.24 38.25 138.942 39.3172 138.345 40.1392C137.755 40.9678 136.96 41.5743 135.959 41.9588C134.964 42.3499 133.857 42.5455 132.638 42.5455ZM132.558 34.1534C133.499 34.1534 134.295 33.938 134.944 33.5071C135.594 33.0762 136.088 32.4564 136.426 31.6477C136.764 30.839 136.933 29.8712 136.933 28.7443C136.933 27.6439 136.767 26.6728 136.436 25.831C136.104 24.9891 135.614 24.3295 134.964 23.8523C134.315 23.375 133.513 23.1364 132.558 23.1364C131.564 23.1364 130.735 23.3883 130.072 23.892C129.416 24.3958 128.922 25.072 128.591 25.9205C128.266 26.7689 128.103 27.7102 128.103 28.7443C128.103 29.8049 128.269 30.7429 128.601 31.5582C128.939 32.367 129.436 33.0033 130.092 33.4673C130.755 33.9247 131.577 34.1534 132.558 34.1534ZM143.535 36.5V21.2273H145.882V36.5H143.535ZM144.728 18.6818C144.271 18.6818 143.877 18.526 143.545 18.2145C143.22 17.9029 143.058 17.5284 143.058 17.0909C143.058 16.6534 143.22 16.2789 143.545 15.9673C143.877 15.6558 144.271 15.5 144.728 15.5C145.186 15.5 145.577 15.6558 145.902 15.9673C146.233 16.2789 146.399 16.6534 146.399 17.0909C146.399 17.5284 146.233 17.9029 145.902 18.2145C145.577 18.526 145.186 18.6818 144.728 18.6818ZM152.526 27.3125V36.5H150.18V21.2273H152.447V23.6136H152.646C153.004 22.8381 153.547 22.215 154.276 21.7443C155.006 21.267 155.947 21.0284 157.1 21.0284C158.134 21.0284 159.039 21.2405 159.815 21.6648C160.59 22.0824 161.194 22.7188 161.624 23.5739C162.055 24.4223 162.271 25.4962 162.271 26.7955V36.5H159.924V26.9545C159.924 25.7547 159.613 24.8201 158.989 24.1506C158.366 23.4744 157.511 23.1364 156.424 23.1364C155.675 23.1364 155.006 23.2988 154.416 23.6236C153.832 23.9484 153.372 24.4223 153.034 25.0455C152.695 25.6686 152.526 26.4242 152.526 27.3125Z" fill="white"/>
</svg>
