<svg width="236" height="51" viewBox="0 0 236 51" fill="none" xmlns="http://www.w3.org/2000/svg">
<path d="M44.8702 18.4208L29.0606 4.91028L24.2377 10.7633L15.3788 7.39952L9.29856 21.8548H5.37256V45.5215H44.7191V21.8548H42.0402L44.8702 18.4208ZM29.5007 10.0417L39.8317 18.8685L37.3703 21.8548H19.7674L29.5007 10.0417ZM17.3242 12.0259L21.7974 13.7242L15.0986 21.8548H13.1908L17.3242 12.0259ZM41.1423 41.8783H8.94987V25.4975H41.1428V41.8783H41.1423Z" fill="#5BA6FF"/>
<path d="M30.4023 31.9228H37.5565V35.5655H30.4023V31.9228Z" fill="#5BA6FF"/>
<path d="M94.3972 23H91.9313C91.7855 22.2907 91.5302 21.6676 91.1657 21.1307C90.8077 20.5938 90.3702 20.143 89.8532 19.7784C89.3427 19.4072 88.776 19.1288 88.1529 18.9432C87.5298 18.7576 86.8801 18.6648 86.204 18.6648C84.9711 18.6648 83.8541 18.9763 82.8532 19.5994C81.8588 20.2225 81.0667 21.1406 80.4767 22.3537C79.8934 23.5668 79.6017 25.0549 79.6017 26.8182C79.6017 28.5814 79.8934 30.0696 80.4767 31.2827C81.0667 32.4957 81.8588 33.4138 82.8532 34.0369C83.8541 34.66 84.9711 34.9716 86.204 34.9716C86.8801 34.9716 87.5298 34.8788 88.1529 34.6932C88.776 34.5076 89.3427 34.2325 89.8532 33.8679C90.3702 33.4967 90.8077 33.0426 91.1657 32.5057C91.5302 31.9621 91.7855 31.339 91.9313 30.6364H94.3972C94.2116 31.6771 93.8735 32.6084 93.383 33.4304C92.8925 34.2524 92.2826 34.9517 91.5534 35.5284C90.8243 36.0985 90.0056 36.5327 89.0975 36.831C88.196 37.1293 87.2315 37.2784 86.204 37.2784C84.4673 37.2784 82.9228 36.8542 81.5705 36.0057C80.2182 35.1572 79.1543 33.9508 78.3787 32.3864C77.6032 30.822 77.2154 28.9659 77.2154 26.8182C77.2154 24.6705 77.6032 22.8144 78.3787 21.25C79.1543 19.6856 80.2182 18.4792 81.5705 17.6307C82.9228 16.7822 84.4673 16.358 86.204 16.358C87.2315 16.358 88.196 16.5071 89.0975 16.8054C90.0056 17.1037 90.8243 17.5412 91.5534 18.1179C92.2826 18.688 92.8925 19.384 93.383 20.206C93.8735 21.0213 94.2116 21.9527 94.3972 23ZM98.0637 37V21.7273H100.331V24.0341H100.49C100.768 23.2784 101.272 22.6652 102.001 22.1946C102.73 21.724 103.552 21.4886 104.467 21.4886C104.64 21.4886 104.855 21.4919 105.113 21.4986C105.372 21.5052 105.568 21.5152 105.7 21.5284V23.9148C105.621 23.8949 105.438 23.8651 105.153 23.8253C104.875 23.7789 104.58 23.7557 104.268 23.7557C103.526 23.7557 102.863 23.9115 102.28 24.223C101.703 24.5279 101.246 24.9522 100.907 25.4957C100.576 26.0327 100.41 26.6458 100.41 27.3352V37H98.0637ZM108.482 37V21.7273H110.828V37H108.482ZM109.675 19.1818C109.218 19.1818 108.823 19.026 108.492 18.7145C108.167 18.4029 108.004 18.0284 108.004 17.5909C108.004 17.1534 108.167 16.7789 108.492 16.4673C108.823 16.1558 109.218 16 109.675 16C110.132 16 110.523 16.1558 110.848 16.4673C111.18 16.7789 111.345 17.1534 111.345 17.5909C111.345 18.0284 111.18 18.4029 110.848 18.7145C110.523 19.026 110.132 19.1818 109.675 19.1818ZM119.621 37.358C118.653 37.358 117.774 37.1757 116.986 36.8111C116.197 36.4399 115.57 35.9062 115.106 35.2102C114.642 34.5076 114.41 33.6591 114.41 32.6648C114.41 31.7898 114.583 31.0805 114.927 30.5369C115.272 29.9867 115.733 29.5559 116.309 29.2443C116.886 28.9328 117.523 28.7008 118.219 28.5483C118.921 28.3892 119.627 28.2633 120.336 28.1705C121.265 28.0511 122.017 27.9616 122.594 27.902C123.177 27.8357 123.601 27.7263 123.866 27.5739C124.138 27.4214 124.274 27.1562 124.274 26.7784V26.6989C124.274 25.7178 124.006 24.9555 123.469 24.4119C122.938 23.8684 122.133 23.5966 121.052 23.5966C119.932 23.5966 119.054 23.8419 118.417 24.3324C117.781 24.8229 117.334 25.3466 117.075 25.9034L114.848 25.108C115.246 24.1799 115.776 23.4574 116.439 22.9403C117.108 22.4167 117.837 22.0521 118.626 21.8466C119.422 21.6345 120.204 21.5284 120.973 21.5284C121.463 21.5284 122.027 21.5881 122.663 21.7074C123.306 21.8201 123.926 22.0554 124.523 22.4134C125.126 22.7713 125.626 23.3116 126.024 24.0341C126.422 24.7566 126.621 25.7244 126.621 26.9375V37H124.274V34.9318H124.155C123.996 35.2633 123.73 35.6179 123.359 35.9957C122.988 36.3736 122.494 36.6951 121.878 36.9602C121.261 37.2254 120.509 37.358 119.621 37.358ZM119.979 35.25C120.907 35.25 121.689 35.0677 122.325 34.7031C122.968 34.3385 123.452 33.8679 123.777 33.2912C124.108 32.7145 124.274 32.108 124.274 31.4716V29.3239C124.175 29.4432 123.956 29.5526 123.618 29.652C123.286 29.7448 122.902 29.8277 122.464 29.9006C122.033 29.9669 121.613 30.0265 121.202 30.0795C120.797 30.1259 120.469 30.1657 120.217 30.1989C119.607 30.2784 119.037 30.4077 118.507 30.5866C117.983 30.759 117.559 31.0208 117.234 31.3722C116.916 31.7169 116.757 32.1875 116.757 32.7841C116.757 33.5994 117.059 34.2159 117.662 34.6335C118.272 35.0445 119.044 35.25 119.979 35.25ZM130.904 37V21.7273H133.171V24.0341H133.33C133.608 23.2784 134.112 22.6652 134.841 22.1946C135.57 21.724 136.392 21.4886 137.307 21.4886C137.479 21.4886 137.695 21.4919 137.953 21.4986C138.212 21.5052 138.407 21.5152 138.54 21.5284V23.9148C138.46 23.8949 138.278 23.8651 137.993 23.8253C137.715 23.7789 137.42 23.7557 137.108 23.7557C136.366 23.7557 135.703 23.9115 135.119 24.223C134.543 24.5279 134.085 24.9522 133.747 25.4957C133.416 26.0327 133.25 26.6458 133.25 27.3352V37H130.904ZM165.901 23H163.435C163.289 22.2907 163.034 21.6676 162.67 21.1307C162.312 20.5938 161.874 20.143 161.357 19.7784C160.847 19.4072 160.28 19.1288 159.657 18.9432C159.034 18.7576 158.384 18.6648 157.708 18.6648C156.475 18.6648 155.358 18.9763 154.357 19.5994C153.363 20.2225 152.571 21.1406 151.981 22.3537C151.397 23.5668 151.106 25.0549 151.106 26.8182C151.106 28.5814 151.397 30.0696 151.981 31.2827C152.571 32.4957 153.363 33.4138 154.357 34.0369C155.358 34.66 156.475 34.9716 157.708 34.9716C158.384 34.9716 159.034 34.8788 159.657 34.6932C160.28 34.5076 160.847 34.2325 161.357 33.8679C161.874 33.4967 162.312 33.0426 162.67 32.5057C163.034 31.9621 163.289 31.339 163.435 30.6364H165.901C165.715 31.6771 165.377 32.6084 164.887 33.4304C164.396 34.2524 163.787 34.9517 163.057 35.5284C162.328 36.0985 161.51 36.5327 160.601 36.831C159.7 37.1293 158.735 37.2784 157.708 37.2784C155.971 37.2784 154.427 36.8542 153.074 36.0057C151.722 35.1572 150.658 33.9508 149.883 32.3864C149.107 30.822 148.719 28.9659 148.719 26.8182C148.719 24.6705 149.107 22.8144 149.883 21.25C150.658 19.6856 151.722 18.4792 153.074 17.6307C154.427 16.7822 155.971 16.358 157.708 16.358C158.735 16.358 159.7 16.5071 160.601 16.8054C161.51 17.1037 162.328 17.5412 163.057 18.1179C163.787 18.688 164.396 19.384 164.887 20.206C165.377 21.0213 165.715 21.9527 165.901 23ZM175.772 37.3182C174.393 37.3182 173.184 36.9901 172.143 36.3338C171.109 35.6776 170.3 34.7595 169.717 33.5795C169.14 32.3996 168.852 31.0208 168.852 29.4432C168.852 27.8523 169.14 26.4635 169.717 25.277C170.3 24.0904 171.109 23.169 172.143 22.5128C173.184 21.8565 174.393 21.5284 175.772 21.5284C177.151 21.5284 178.357 21.8565 179.392 22.5128C180.432 23.169 181.241 24.0904 181.818 25.277C182.401 26.4635 182.693 27.8523 182.693 29.4432C182.693 31.0208 182.401 32.3996 181.818 33.5795C181.241 34.7595 180.432 35.6776 179.392 36.3338C178.357 36.9901 177.151 37.3182 175.772 37.3182ZM175.772 35.2102C176.82 35.2102 177.681 34.9418 178.357 34.4048C179.034 33.8679 179.534 33.1619 179.859 32.2869C180.184 31.4119 180.346 30.464 180.346 29.4432C180.346 28.4223 180.184 27.4711 179.859 26.5895C179.534 25.7079 179.034 24.9953 178.357 24.4517C177.681 23.9081 176.82 23.6364 175.772 23.6364C174.725 23.6364 173.863 23.9081 173.187 24.4517C172.511 24.9953 172.01 25.7079 171.686 26.5895C171.361 27.4711 171.198 28.4223 171.198 29.4432C171.198 30.464 171.361 31.4119 171.686 32.2869C172.01 33.1619 172.511 33.8679 173.187 34.4048C173.863 34.9418 174.725 35.2102 175.772 35.2102ZM188.621 27.8125V37H186.275V21.7273H188.542V24.1136H188.741C189.099 23.3381 189.642 22.715 190.371 22.2443C191.1 21.767 192.042 21.5284 193.195 21.5284C194.229 21.5284 195.134 21.7405 195.91 22.1648C196.685 22.5824 197.288 23.2188 197.719 24.0739C198.15 24.9223 198.366 25.9962 198.366 27.2955V37H196.019V27.4545C196.019 26.2547 195.707 25.3201 195.084 24.6506C194.461 23.9744 193.606 23.6364 192.519 23.6364C191.77 23.6364 191.1 23.7988 190.51 24.1236C189.927 24.4484 189.466 24.9223 189.128 25.5455C188.79 26.1686 188.621 26.9242 188.621 27.8125ZM209.296 21.7273V23.7159H201.381V21.7273H209.296ZM203.688 18.0682H206.034V32.625C206.034 33.2879 206.13 33.785 206.323 34.1165C206.521 34.4413 206.773 34.66 207.078 34.7727C207.39 34.8788 207.718 34.9318 208.063 34.9318C208.321 34.9318 208.533 34.9186 208.699 34.892C208.865 34.8589 208.997 34.8324 209.097 34.8125L209.574 36.9205C209.415 36.9801 209.193 37.0398 208.908 37.0994C208.623 37.1657 208.262 37.1989 207.824 37.1989C207.161 37.1989 206.512 37.0563 205.875 36.7713C205.245 36.4863 204.722 36.0521 204.304 35.4688C203.893 34.8854 203.688 34.1496 203.688 33.2614V18.0682ZM217.32 37.358C216.352 37.358 215.474 37.1757 214.685 36.8111C213.896 36.4399 213.27 35.9062 212.806 35.2102C212.342 34.5076 212.11 33.6591 212.11 32.6648C212.11 31.7898 212.282 31.0805 212.627 30.5369C212.971 29.9867 213.432 29.5559 214.009 29.2443C214.585 28.9328 215.222 28.7008 215.918 28.5483C216.62 28.3892 217.326 28.2633 218.036 28.1705C218.964 28.0511 219.716 27.9616 220.293 27.902C220.876 27.8357 221.3 27.7263 221.566 27.5739C221.837 27.4214 221.973 27.1562 221.973 26.7784V26.6989C221.973 25.7178 221.705 24.9555 221.168 24.4119C220.637 23.8684 219.832 23.5966 218.752 23.5966C217.631 23.5966 216.753 23.8419 216.117 24.3324C215.48 24.8229 215.033 25.3466 214.774 25.9034L212.547 25.108C212.945 24.1799 213.475 23.4574 214.138 22.9403C214.807 22.4167 215.537 22.0521 216.325 21.8466C217.121 21.6345 217.903 21.5284 218.672 21.5284C219.163 21.5284 219.726 21.5881 220.362 21.7074C221.005 21.8201 221.625 22.0554 222.222 22.4134C222.825 22.7713 223.325 23.3116 223.723 24.0341C224.121 24.7566 224.32 25.7244 224.32 26.9375V37H221.973V34.9318H221.854C221.695 35.2633 221.43 35.6179 221.058 35.9957C220.687 36.3736 220.193 36.6951 219.577 36.9602C218.96 37.2254 218.208 37.358 217.32 37.358ZM217.678 35.25C218.606 35.25 219.388 35.0677 220.024 34.7031C220.667 34.3385 221.151 33.8679 221.476 33.2912C221.807 32.7145 221.973 32.108 221.973 31.4716V29.3239C221.874 29.4432 221.655 29.5526 221.317 29.652C220.985 29.7448 220.601 29.8277 220.164 29.9006C219.733 29.9669 219.312 30.0265 218.901 30.0795C218.496 30.1259 218.168 30.1657 217.916 30.1989C217.307 30.2784 216.736 30.4077 216.206 30.5866C215.682 30.759 215.258 31.0208 214.933 31.3722C214.615 31.7169 214.456 32.1875 214.456 32.7841C214.456 33.5994 214.758 34.2159 215.361 34.6335C215.971 35.0445 216.743 35.25 217.678 35.25Z" fill="white"/>
</svg>
