<svg width="34" height="34" viewBox="0 0 34 34" fill="none" xmlns="http://www.w3.org/2000/svg">
<path d="M11.627 16.656C12.1803 17.2094 12.1803 18.1063 11.627 18.6596L9.03675 21.2499H22.6669C23.4493 21.2499 24.0836 21.8841 24.0836 22.6665C24.0836 23.449 23.4493 24.0832 22.6669 24.0832H9.03675L11.627 26.6734C12.1803 27.2266 12.1803 28.1237 11.627 28.6769C11.0738 29.2302 10.1768 29.2302 9.62356 28.6769L4.61488 23.6683C4.06164 23.115 4.06164 22.218 4.61488 21.6648L9.62356 16.656C10.1768 16.1028 11.0738 16.1028 11.627 16.656ZM22.3734 5.32278C22.8842 4.81208 23.6877 4.7728 24.2434 5.20492L24.3768 5.32278L29.3856 10.3314C29.8962 10.8421 29.9355 11.6457 29.5034 12.2015L29.3856 12.3349L24.3768 17.3435C23.8236 17.8969 22.9267 17.8969 22.3734 17.3435C21.8627 16.8329 21.8234 16.0293 22.2555 15.4735L22.3734 15.3401L24.9638 12.7498H11.3334C10.551 12.7498 9.91677 12.1156 9.91677 11.3332C9.91677 10.6067 10.4637 10.0079 11.1682 9.92604L11.3334 9.91651H24.9638L22.3734 7.32624C21.8202 6.773 21.8202 5.87601 22.3734 5.32278Z" fill="#4F7DEA"/>
</svg>
