<svg width="1280" height="160" viewBox="0 0 1280 160" fill="none" xmlns="http://www.w3.org/2000/svg">
<path d="M1279.82 137.598C1279.88 137.592 1279.94 137.588 1280 137.581L1277.3 136.62L1275.36 135.591C1243.16 137.947 1214.29 137.816 1187.11 135.187C1100.2 126.785 1049.38 94.6366 1000.2 63.5486C952.638 33.481 907.741 5.07675 832.081 1.03467C801.151 -0.622096 768.114 1.80491 731.053 8.45612C677.808 18.4406 628.174 39.8799 580.145 60.6147C522.832 85.3697 463.568 110.965 406.566 112.023C368.157 112.778 328.599 102.653 286.857 91.9792C217.071 74.1388 130.209 51.9359 0.847106 67.9615L3.39957 68.7625C2.4633 68.8898 1.53817 68.9929 0.601891 69.1246L3.27696 69.8685C2.30725 70.0133 1.34868 70.134 0.378969 70.2832L3.15436 70.9766C2.16235 71.139 1.17034 71.2751 0.178338 71.444L3.00946 72.087C2.0063 72.2669 1.00315 72.4162 0 72.6027L7.64625 74.2024C37.0163 68.7515 64.3912 66.6186 91.22 67.6719C161.831 70.4478 218.944 95.5517 269.324 117.7C320.229 140.074 364.334 159.463 420.321 159.463C421.547 159.463 422.784 159.455 424.032 159.435C503.694 158.221 533.175 137.247 567.316 112.96C591.537 95.725 618.99 76.1971 668.646 62.2517C712.818 50.3822 752.242 44.9006 789.213 45.5107C855.388 46.5947 907.764 67.0838 963.216 88.7776C1021.93 111.751 1082.67 135.501 1169.66 140.765C1204.31 142.863 1241.3 141.803 1279.57 137.623C1279.59 137.623 1279.61 137.62 1279.63 137.618C1279.7 137.612 1279.77 137.607 1279.82 137.598ZM273.426 105.832C322.335 122.918 364.367 137.667 415.818 136.822C487.532 135.624 532.206 111.874 579.51 86.7324C615.479 67.6148 652.673 47.8455 703.745 36.145C742.165 27.3411 776.083 23.5579 807.304 24.5893C874.247 26.7925 922.766 50.8079 974.139 76.2322C1002.46 90.2456 1031.3 104.483 1064.75 115.999C1033.45 105.896 1005.39 93.5943 977.806 81.4834C922.956 57.3846 871.115 34.6221 798.71 32.8885C760.746 31.9713 720.988 36.867 677.44 47.8433C625.421 60.9483 593.42 80.373 562.49 99.1593C523.779 122.659 487.231 144.858 419.028 145.944C372.214 146.729 327.986 129.288 281.317 110.866C261.711 103.125 241.838 95.2927 220.838 88.3211C239.296 93.9322 256.74 100.008 273.426 105.832ZM203.763 79.6884C229.555 85.723 253.307 92.8943 275.644 99.664C322.937 113.989 363.877 126.352 411.716 125.516C479.217 124.329 530.5 99.9251 584.793 74.0905C626.469 54.2641 669.548 33.7619 721.233 23.1015C757.202 15.6845 788.701 12.6694 817.625 13.8938C885.572 16.7663 931.94 42.6492 981.027 70.0506C1005.67 83.8051 1030.71 97.7724 1059.62 109.574C1032.68 99.2624 1008.39 87.2569 984.494 75.4225C931.94 49.4079 882.295 24.8351 809.165 22.4278C773.765 21.267 736.481 25.2805 695.285 34.7186C642.909 46.7154 605.369 66.6734 569.055 85.9731C523.021 110.441 479.529 133.559 414.87 134.638C370.921 135.369 328.22 120.504 283.134 104.759C258.668 96.2144 232.598 87.1274 203.763 79.6884ZM278.029 93.32C323.595 104.97 362.862 115.04 407.614 114.211C471.036 113.034 528.962 88.0161 590.288 61.532C637.86 40.988 687.048 19.7463 738.643 10.069C772.572 3.97955 802.187 1.72152 829.161 3.15885C898.914 6.88493 942.93 34.7296 989.565 64.2113C1011.87 78.3169 1034.53 92.6287 1060.9 104.939C1035.92 94.0726 1013.57 81.6129 991.538 69.3221C941.369 41.3238 893.987 14.8791 819.943 11.7499C786.94 10.3565 751.996 13.5734 713.152 21.5896C660.018 32.5462 616.537 53.2415 574.483 73.2544C521.517 98.4549 471.482 122.262 410.713 123.328C369.539 124.077 328.421 111.626 284.973 98.4636C256.361 89.8002 225.531 80.4828 190.554 73.588C222.31 79.0849 250.877 86.3769 278.029 93.32ZM790.138 43.3251C749.076 42.6492 706.308 48.4183 659.584 60.9746C608.757 75.2469 581.048 94.9723 556.571 112.376C523.556 135.867 495.033 156.154 423.174 157.247C373.262 158.009 327.719 137.996 279.501 116.8C264.765 110.322 249.885 103.787 234.492 97.6429C247.21 102.33 259.471 107.158 271.33 111.845C320.607 131.296 363.308 148.165 415.985 148.162C417.289 148.162 418.604 148.151 419.931 148.129C495.535 146.925 531.481 125.104 573.09 99.8329C603.73 81.2289 635.419 61.9906 686.223 49.1929C727.174 38.8748 763.588 34.2578 797.372 35.0654C863.525 36.6497 914.117 58.8614 967.652 82.3787C998.226 95.8062 1029.38 109.444 1065.21 120.217C1032.22 110.871 1002.43 99.2383 973.169 87.7945C916.268 65.5345 862.521 44.51 790.138 43.3251Z" fill="#003271"/>
</svg>
